<?xml version="1.0" encoding="iso-8859-1"?>
<!-- Generator: Adobe Illustrator 19.0.0, SVG Export Plug-In . SVG Version: 6.00 Build 0)  -->
<svg version="1.1" id="Layer_1" xmlns="http://www.w3.org/2000/svg" xmlns:xlink="http://www.w3.org/1999/xlink" x="0px" y="0px"
	 viewBox="0 0 512.011 512.011" style="enable-background:new 0 0 512.011 512.011;" xml:space="preserve">
<g>
	<g>
		<g>
			<path d="M394.678,255.773c6.272,0,12.416,0.576,18.432,1.365c3.435,0.491,6.635-0.683,8.96-3.029l65.472-65.472
				c2.88-2.859,3.861-7.125,2.56-10.965c-1.323-3.84-4.693-6.613-8.704-7.147l-154.496-20.48L254.88,5.661
				c-3.584-7.232-15.509-7.232-19.093,0l-72.021,144.384L9.27,170.525c-4.011,0.533-7.403,3.307-8.704,7.147
				s-0.32,8.085,2.56,10.965l113.301,113.301L85.558,456.328c-0.789,4.011,0.747,8.085,3.989,10.581
				c1.877,1.451,4.181,2.197,6.464,2.197c1.621,0,3.264-0.384,4.779-1.131l146.859-73.429c1.237-0.213,2.411-0.619,3.52-1.259
				c3.115-1.771,5.099-4.971,5.355-8.512C261.515,312.435,322.23,255.773,394.678,255.773z"/>
			<path d="M394.678,277.107c-64.683,0-117.333,52.629-117.333,117.333s52.651,117.333,117.333,117.333
				s117.333-52.629,117.333-117.333S459.36,277.107,394.678,277.107z M444.896,444.637c-2.091,2.091-4.821,3.136-7.552,3.136
				c-2.731,0-5.461-1.045-7.552-3.115l-35.115-35.115l-35.115,35.115c-2.091,2.069-4.821,3.115-7.552,3.115
				c-2.731,0-5.461-1.045-7.552-3.115c-4.16-4.16-4.16-10.923,0-15.083l35.115-35.115l-35.115-35.115
				c-4.16-4.16-4.16-10.923,0-15.083c4.16-4.16,10.923-4.16,15.083,0l35.115,35.115l35.115-35.115c4.16-4.16,10.923-4.16,15.083,0
				c4.16,4.16,4.16,10.923,0,15.083l-35.115,35.115l35.157,35.093C449.056,433.715,449.056,440.477,444.896,444.637z"/>
		</g>
	</g>
</g>
<g>
</g>
<g>
</g>
<g>
</g>
<g>
</g>
<g>
</g>
<g>
</g>
<g>
</g>
<g>
</g>
<g>
</g>
<g>
</g>
<g>
</g>
<g>
</g>
<g>
</g>
<g>
</g>
<g>
</g>
</svg>
